<svg xmlns="http://www.w3.org/2000/svg" fill="none" viewBox="0 0 455 50">
	<path fill="#F3EE21"
		d="M79.943 37.958c-1.425-5.749-2.84-11.419-4.254-17.09l-.19-.007-5.181 20.872h-6.495L55.74 9.117c2.296 0 4.496-.015 6.694.03.164.003.419.408.465.657 1.348 7.19 2.674 14.385 4.006 21.578.057.31.134.616.355.95l5.715-23.18h5.231l5.73 23.197.17-.028 4.3-23.163h6.762l-8.085 32.623c-1.945 0-3.87.017-5.792-.027-.192-.004-.475-.348-.544-.585-.3-1.034-.535-2.087-.805-3.21v-.001Zm263.609 3.692h-1.553V8.57h.916c5.311 0 10.623-.002 15.935.001 3.406.002 6.003 2.356 6.23 5.754.117 1.77.122 3.553.062 5.326-.082 2.4-.624 3.309-2.729 5.04.451.344.91.673 1.348 1.029 1.008.82 1.628 1.915 1.67 3.185.079 2.376.178 4.772-.04 7.131-.325 3.516-2.894 5.602-6.571 5.61-5.059.013-10.118.004-15.268.004Zm10.886-13.966h-5.744V35.4c2.971 0 5.873.014 8.775-.01.745-.005 1.296-.39 1.313-1.202.037-1.769.04-3.539.023-5.308-.006-.66-.373-1.066-1.061-1.093-1.038-.042-2.078-.07-3.306-.103Zm4.054-10.053c0-.317.001-.634-.001-.951-.008-1.538-.423-1.946-1.985-1.947-1.769-.002-3.538 0-5.307 0h-2.52v6.997c2.92 0 5.788.008 8.656-.004.864-.004 1.118-.615 1.146-1.34.033-.855.01-1.712.011-2.755Z" />
	<path fill="#F1EC21"
		d="M232.019 23.62V8.57h17.395c3.652.002 6.285 2.621 6.29 6.286.009 6.698.003 13.395.002 20.093 0 3.946-2.318 6.585-6.218 6.67-5.72.122-11.445.026-17.168.02-.058 0-.115-.04-.301-.107V23.619Zm6.71-1.239v12.92c2.908 0 5.657.002 8.407 0 1.525-.002 1.918-.355 1.951-1.877.034-1.554.009-3.11.009-4.664 0-3.935.008-7.87-.003-11.804-.006-1.764-.377-2.12-2.11-2.122h-8.254v7.547Z" />
	<path fill="#F3EE21"
		d="M409.364 27.79c-1.811-.478-3.609-.78-5.262-1.444-2.833-1.14-4.44-3.223-4.264-6.474.094-1.74.006-3.49.019-5.235.024-3.61 2.614-6.247 6.213-6.278 3.414-.03 6.828-.03 10.243 0 3.6.032 6.192 2.673 6.214 6.28.009 1.358.002 2.715.002 4.113h-6.457c0-.831.011-1.643-.002-2.454-.02-1.171-.454-1.621-1.604-1.627-2.15-.013-4.3-.014-6.449 0-1.014.007-1.452.395-1.516 1.419-.062 1.011-.023 2.03-.038 3.044-.014.94.444 1.45 1.358 1.64 2.687.56 5.368 1.15 8.052 1.72 2.068.44 4.012 1.128 5.554 2.67 1.082 1.083 1.642 2.377 1.636 3.92-.01 2.126-.002 4.252-.003 6.379-.002 3.599-2.497 6.247-6.064 6.306-3.667.061-7.335.062-11.002 0-3.644-.061-6.13-2.681-6.139-6.338-.004-1.423-.001-2.847-.001-4.327h6.456c0 .926-.01 1.837.003 2.748.015 1.137.296 1.567 1.404 1.598 2.458.07 4.918.02 7.378.012.975-.003 1.326-.62 1.349-1.482.028-1.014.01-2.03.007-3.046-.004-1.332-.276-1.692-1.546-1.97-1.819-.397-3.641-.774-5.541-1.173Z" />
	<path fill="#F2ED21"
		d="M428.695 11.239V8.626h21.583v6.178h-14.866v6.712h11.985v6.32h-11.984v7.455h14.855v6.29h-21.573V11.24Z" />
	<path fill="#F3EE21"
		d="M43.542 8.378h9.83v6.372H38.703v6.731h11.865v6.366H38.692v7.539H53.4v6.353h-21.21V8.378h11.353Z" />
	<path fill="#F2EE21"
		d="M389.08 16.717c2.674 8.321 5.327 16.569 8.018 24.933-2.342 0-4.547.018-6.751-.028-.213-.005-.53-.376-.61-.636a167.205 167.205 0 0 1-1.71-5.93c-.171-.649-.406-.924-1.136-.912-2.971.049-5.943.043-8.914.002-.638-.009-.872.232-1.031.794-.627 2.224-1.289 4.437-1.944 6.674h-6.899l10.601-33.043c2.455 0 4.855-.019 7.254.029.25.005.627.361.718.632.823 2.46 1.597 4.94 2.404 7.485Zm-3.221 10.841-3.313-11.6-3.523 11.976c2.26 0 4.37.003 6.481-.01.122 0 .244-.13.355-.366Z" />
	<path fill="#F3EE21"
		d="M329.6 38.191c-.342-1.169-.68-2.259-.965-3.363-.121-.468-.298-.68-.824-.676-3.098.025-6.196.027-9.293-.001-.575-.005-.743.248-.882.74-.557 1.982-1.176 3.947-1.726 5.932-.153.552-.376.758-.97.746-2.019-.042-4.039-.016-6.157-.016l2.984-9.296c2.398-7.476 4.815-14.946 7.168-22.436.313-.996.688-1.41 1.799-1.35 2.109.113 4.228.032 6.4.032l10.61 33.048c-2.348 0-4.581.012-6.813-.024-.175-.003-.431-.314-.503-.532-.298-.9-.541-1.819-.828-2.804ZM321.676 21.2l-1.946 6.597h6.882l-3.308-11.538-.177.017c-.486 1.64-.97 3.282-1.451 4.924Z" />
	<path fill="#F2EE21"
		d="M263.993 24.894c1.748-5.468 3.476-10.864 5.224-16.323 2.434 0 4.864-.022 7.292.035.252.006.619.447.72.756 1.558 4.752 3.083 9.515 4.61 14.277 1.846 5.757 3.687 11.517 5.529 17.275.065.205.113.414.201.736-2.306 0-4.536.019-6.765-.032-.202-.004-.493-.42-.577-.697-.608-2-1.201-4.004-1.736-6.024-.153-.575-.393-.75-.97-.745-3.003.026-6.005.03-9.007-.003-.611-.006-.884.175-1.047.771-.544 1.982-1.174 3.94-1.707 5.925-.173.643-.449.839-1.105.823-1.956-.048-3.913-.017-6.053-.017 1.813-5.632 3.592-11.158 5.391-16.757Zm10.85-2.719-1.79-6.191-3.495 11.885h6.907c-.544-1.904-1.064-3.724-1.622-5.694Z" />
	<path fill="#F4EF21"
		d="M3.82 28.571c.196-.251.39-.555.587-.559 1.957-.036 3.914-.021 5.996-.021v5.17c0 .358-.031.72.01 1.072.096.806.476 1.312 1.351 1.306 2.15-.013 4.3-.006 6.45-.003.748 0 1.193-.365 1.293-1.13.054-.414.095-.836.095-1.254.006-7.896.005-15.792.005-23.688V8.378h6.507V35.362c-.001 3.968-2.538 6.565-6.422 6.57-3.035.005-6.07.001-9.106.001-4.286 0-6.707-2.437-6.761-6.842-.027-2.144-.005-4.29-.004-6.52Z" />
	<path fill="#F1ED21" d="M306.718 14.736h-5.34v26.769h-6.723V14.768h-8.535V8.566h23.769v6.17h-3.171Z" />
	<path fill="#ECE820"
		d="M134.225 8.402h1.588v33.38l-8.133.028V28.751h-9.004v13.033h-8.108V8.445h8.078v12.407h8.996V8.402h6.584m-21.64 31.6h4.232V26.908H129.6v13.06h4.307V10.33h-4.373v12.403h-12.745V10.33h-4.401c-.012.2-.026.327-.026.453-.001 9.49-.002 18.98.001 28.469 0 .217.047.435.223.75Z" />
	<path fill="#EBE720"
		d="M205.395 34.634h10.196v7.703h-22.579V8.567h22.598v7.697h-14.481v4.908h11.737v7.79h-11.741v5.672h4.27Zm6.732-20.04h1.728v-4.283h-19.084v30.255h19.061V36.29h-14.451V27.23h11.692v-4.367h-11.697v-8.267h12.751Z" />
	<path fill="#EFEA20"
		d="M162.649 22.702c2.052 6.402 4.077 12.734 6.131 19.154h-8.769l-2.027-6.963h-8.815l-2.08 7.01h-8.493c.43-1.361.837-2.672 1.257-3.98 3.059-9.528 6.13-19.053 9.162-28.59.234-.736.534-.974 1.307-.952 2.18.063 4.365.07 6.545 0 .904-.03 1.294.24 1.567 1.127 1.352 4.388 2.785 8.751 4.215 13.194Zm-11.001-12.44c-.726-.143-1.035.192-1.254.884-2.637 8.297-5.307 16.584-7.964 24.875-.428 1.335-.835 2.677-1.278 4.101 1.278 0 2.387-.061 3.486.02.822.061 1.148-.243 1.353-1.016.54-2.042 1.169-4.06 1.768-6.11 3.646 0 7.217.027 10.787-.021.742-.01.965.284 1.133.918.487 1.837 1.02 3.662 1.565 5.482.08.266.314.683.49.69 1.466.056 2.935.032 4.475.032-.066-.295-.087-.448-.134-.593-3.07-9.555-6.149-19.108-9.197-28.67-.167-.525-.419-.605-.877-.599-1.391.019-2.782.007-4.353.007Z" />
	<path fill="#F0EC21"
		d="M182.247 30.095v12.251h-8.129v-26.14h-8.352V8.54h24.83v7.63h-8.349v13.925Zm4.833-19.834H167.5v4.252h8.358v26.06h4.67V14.494h8.316V10.26h-1.764ZM155.467 19.26c.912 3.204 1.811 6.332 2.729 9.525h-9.2l4.662-15.802c.652 2.25 1.225 4.226 1.809 6.277Zm.281 7.761-2.105-7.362-2.176 7.362c1.341 0 3.053.037 4.281 0Z" />
</svg>
