<svg xmlns="http://www.w3.org/2000/svg" width="62" height="28" fill="none"><path fill="#F2ED21" d="M47.739 27.748V0h7.52c2.018 0 3.484.494 4.399 1.482.925.977 1.387 2.596 1.387 4.856v1.214c0 1.303-.236 2.36-.71 3.169-.462.809-1.171 1.34-2.128 1.592 1.251.315 2.087 1.056 2.507 2.223.43 1.156.646 2.57.646 4.241 0 1.797-.168 3.369-.504 4.714-.336 1.345-.946 2.391-1.829 3.137-.883.747-2.139 1.12-3.768 1.12h-7.52Zm5.423-17.295h1.135c.515 0 .846-.2.994-.6.147-.399.22-.877.22-1.434v-2.79c0-.894-.394-1.34-1.182-1.34h-1.167v6.164Zm.552 12.407c1.44 0 2.16-.683 2.16-2.05v-3.468c0-.788-.121-1.408-.363-1.86-.23-.462-.672-.694-1.324-.694h-1.025v8.04c.231.022.415.032.552.032ZM31.815 27.748V0h7.631c1.997 0 3.5.557 4.51 1.671 1.008 1.104 1.513 2.722 1.513 4.856v12.991c0 2.628-.463 4.656-1.388 6.086-.914 1.429-2.522 2.144-4.824 2.144h-7.442Zm5.582-4.903h.961c1.02 0 1.53-.494 1.53-1.482V7.047c0-.925-.127-1.518-.379-1.781-.242-.274-.74-.41-1.498-.41h-.614v17.989Z"/><path stroke="#F2ED21" stroke-width="1.153" d="M20.645 15.167V27.17H16.28V.577h4.365v9.916h3.77V.577h4.365V27.17h-4.365V14.59h-3.77v.577Z"/><path fill="#F2ED21" d="M6.78 28c-1.251 0-2.392-.242-3.422-.725a5.796 5.796 0 0 1-2.46-2.144C.3 24.174 0 23.002 0 21.615v-6.953h5.486v6.622c0 .483.095.872.284 1.167.2.294.515.44.946.44.83 0 1.246-.509 1.246-1.528V0h5.597v20.81c0 1.472-.29 2.75-.868 3.832-.578 1.072-1.376 1.902-2.396 2.49-1.02.579-2.191.868-3.516.868Z"/></svg>
